<svg width="41" height="40" viewBox="0 0 41 40" fill="none" xmlns="http://www.w3.org/2000/svg">
<g clip-path="url(#clip0_180_208)">
<path d="M2 1.66667H8.66667L13.1333 23.9833C13.2857 24.7507 13.7032 25.4399 14.3126 25.9305C14.922 26.4211 15.6845 26.6817 16.4667 26.6667H32.6667C33.4488 26.6817 34.2114 26.4211 34.8208 25.9305C35.4302 25.4399 35.8476 24.7507 36 23.9833L38.6667 10H10.3333M17 35C17 35.9205 16.2538 36.6667 15.3333 36.6667C14.4129 36.6667 13.6667 35.9205 13.6667 35C13.6667 34.0795 14.4129 33.3333 15.3333 33.3333C16.2538 33.3333 17 34.0795 17 35ZM35.3333 35C35.3333 35.9205 34.5871 36.6667 33.6667 36.6667C32.7462 36.6667 32 35.9205 32 35C32 34.0795 32.7462 33.3333 33.6667 33.3333C34.5871 33.3333 35.3333 34.0795 35.3333 35Z" stroke="#1E1E1E" stroke-width="4" stroke-linecap="round" stroke-linejoin="round"/>
</g>
<defs>
<clipPath id="clip0_180_208">
<rect x="0.333496" width="40" height="40" rx="5" fill="white"/>
</clipPath>
</defs>
</svg>
